#!OML:ASF G:\JayActor3\Patient Classification 1\Patient 1\Session 2\male.ASF
:FULLY-SPECIFIED
:DEGREES
1647
root 40.6682 16.2622 -7.13352 1481.36 -81.0905 321.526
lowerback 0.525685 -1.18882 3.48051
upperback 2.01966 -1.68281 2.28811
thorax 1.74892 -0.824587 0.381442
lowerneck -10.1595 -3.96173 -3.66024
upperneck 5.92444 -5.55676 8.22748
head 3.76323 -2.45523 2.75256
rclavicle -1.04921e-014 -4.22417e-015
rhumerus -32.2077 4.90986 -88.4981
rradius 31.1022
rwrist -1.60991
rhand -20.8484 1.22728
rfingers 7.12502
rthumb 5.52076 -28.6808
lclavicle -1.04921e-014 -4.22417e-015
lhumerus -28.358 10.051 84.6917
lradius 21.1575
lwrist 7.94292
lhand -27.7202 23.5048
lfingers 7.12502
lthumb -1.11566 53.4817
rfemur -13.7713 4.84203 32.0247
rtibia 38.1823
rfoot -28.5685 -3.59034
rtoes 14.8069
lfemur -35.3025 -4.96565 -15.9517
ltibia 60.8412
lfoot -17.236 12.0661
ltoes -24.5761
1648
root 40.5224 16.2602 -7.13985 1480.13 -80.9341 322.835
lowerback 0.588666 -1.21825 3.38251
upperback 2.04671 -1.71844 2.26311
thorax 1.74254 -0.843445 0.411312
lowerneck -10.1653 -4.0196 -3.67439
upperneck 5.76904 -5.62431 8.25238
head 3.72239 -2.49085 2.75847
rclavicle -4.05645e-015 -4.12478e-015
rhumerus -32.1787 4.80174 -88.5179
rradius 31.4368
rwrist -1.91313
rhand -20.8473 1.06953
rfingers 7.12502
rthumb 5.52177 -28.8385
lclavicle -4.05645e-015 -4.12478e-015
lhumerus -28.615 10.9711 84.1345
lradius 20.2957
lwrist 7.3602
lhand -27.761 23.7389
lfingers 7.12502
lthumb -1.15513 53.7155
rfemur -13.0233 5.02373 32.1545
rtibia 37.7229
rfoot -28.8838 -4.18117
rtoes 14.4682
lfemur -36.1217 -5.34184 -16.1676
ltibia 59.4213
lfoot -17.4945 11.9363
ltoes -24.9985
1649
root 40.3747 16.2586 -7.14581 1478.84 -80.8064 324.179
lowerback 0.666247 -1.23771 3.26173
upperback 2.07834 -1.73986 2.22598
thorax 1.73321 -0.855413 0.441889
lowerneck -10.1533 -4.08444 -3.7009
upperneck 5.61538 -5.70067 8.28472
head 3.68033 -2.53118 2.76837
rclavicle -9.0944e-015 2.10215e-014
rhumerus -32.1873 4.69963 -88.5472
rradius 31.7669
rwrist -2.21856
rhand -20.9242 1.03321
rfingers 7.12502
rthumb 5.44752 -28.8768
lclavicle -9.0944e-015 2.10215e-014
lhumerus -28.88 11.8433 83.5958
lradius 19.5172
lwrist 6.76837
lhand -27.7993 23.9415
lfingers 7.12502
lthumb -1.19207 53.918
rfemur -12.2285 5.18591 32.2547
rtibia 37.2327
rfoot -29.1708 -4.72599
rtoes 14.1308
lfemur -36.803 -5.57802 -16.4757
ltibia 57.9107
lfoot -17.6717 11.5353
ltoes -25.5274
1650
root 40.2257 16.256 -7.15165 1477.58 -80.704 325.475
lowerback 0.759076 -1.24414 3.13052
upperback 2.11405 -1.74334 2.18103
thorax 1.71988 -0.858534 0.470727
lowerneck -10.1288 -4.15474 -3.73942
upperneck 5.46836 -5.7841 8.32488
head 3.63932 -2.57508 2.78233
rclavicle -2.49537e-014 1.56294e-014
rhumerus -32.2309 4.60618 -88.5842
rradius 32.0949
rwrist -2.50701
rhand -21.0397 1.05145
rfingers 7.12502
rthumb 5.33605 -28.8614
lclavicle -2.49537e-014 1.56294e-014
lhumerus -29.1441 12.6708 83.0778
lradius 18.8163
lwrist 6.17006
lhand -27.8352 24.0898
lfingers 7.12502
lthumb -1.22673 54.066
rfemur -11.4094 5.3397 32.3429
rtibia 36.7357
rfoot -29.4211 -5.25129
rtoes 13.7625
lfemur -37.3625 -5.65307 -16.8749
ltibia 56.3594
lfoot -17.771 10.872
ltoes -26.1836
1651
root 40.0758 16.2519 -7.15741 1476.41 -80.6294 326.662
lowerback 0.865344 -1.23604 2.99647
upperback 2.14521 -1.72675 2.13148
thorax 1.69454 -0.851784 0.496951
lowerneck -10.0792 -4.22737 -3.79069
upperneck 5.33849 -5.87077 8.36811
head 3.60013 -2.62092 2.79945
rclavicle 2.24099e-014 -9.51682e-015
rhumerus -32.3063 4.52341 -88.6312
rradius 32.3974
rwrist -2.76248
rhand -21.1965 1.13808
rfingers 7.12502
rthumb 5.1846 -28.7785
lclavicle 2.24099e-014 -9.51682e-015
lhumerus -29.4205 13.4383 82.5882
lradius 18.2023
lwrist 5.59491
lhand -27.8898 24.1922
lfingers 7.12502
lthumb -1.27948 54.1681
rfemur -10.585 5.49867 32.4297
rtibia 36.2542
rfoot -29.6354 -5.76883
rtoes 13.3508
lfemur -37.8136 -5.55106 -17.3661
ltibia 54.8199
lfoot -17.8109 9.96724
ltoes -26.9565
